<svg width="78" height="53" viewBox="0 0 78 53" fill="none" xmlns="http://www.w3.org/2000/svg">
<path d="M9.15169 12.0987C8.50866 12.356 6.99111 12.9475 6.06515 13.2562C5.1392 13.5648 4.90771 12.8704 4.90771 12.4846L4.9079 13.2562L3.75026 13.642C3.87886 14.1564 4.21324 15.2624 4.52189 15.5711C4.83054 15.8797 9.79471 15.6997 12.2382 15.5711L16.4822 14.7995L19.9545 12.0987L17.2538 15.5711L22.2694 23.6732L21.4978 25.2165C19.3115 25.6023 14.6303 26.9141 13.3957 29.0747C11.8524 31.7754 10.695 33.3186 11.8524 36.791C12.7784 39.5689 14.5531 37.9484 15.3247 36.791C15.582 35.8908 16.5594 34.0903 18.4113 34.0903C20.2632 34.0903 24.5843 34.6047 26.5134 34.8619L23.4269 28.303C23.1697 27.2742 22.9639 25.6795 24.1985 27.5314C25.4331 29.3833 28.0567 33.4472 29.2141 35.2477L28.8283 45.6648C28.5711 46.0506 27.9024 46.9765 27.2851 47.5938C26.6677 48.2112 24.9702 48.8799 24.1985 49.1371C23.4269 49.9087 22.5781 51.452 25.356 51.452C28.1339 51.452 31.4004 51.1948 32.6865 51.0662C33.8439 51.1948 36.3903 50.6804 37.3163 47.5938C38.2422 44.5073 39.5026 38.077 40.017 35.2477C40.017 34.0903 39.8627 31.3896 39.2454 29.8463C38.6281 28.303 38.2165 26.6312 38.0879 25.9881C38.2165 25.2165 38.6281 24.1362 39.2454 25.9881C39.8627 27.8401 40.5314 30.1035 40.7886 31.0037C41.3031 32.1612 43.0264 34.5533 45.8042 34.8619C48.5821 35.1706 55.9641 34.9905 59.3078 34.8619C59.3078 38.077 59.1535 44.7388 58.5362 45.6648C57.7645 46.8222 57.7645 48.3655 55.4496 49.1371C53.5977 49.7544 50.3054 49.3943 48.8908 49.1371C48.1191 48.7513 47.0389 47.5167 48.8908 45.6648C51.2057 43.3499 50.434 45.6648 50.8199 41.8066C51.1285 38.7201 50.6912 36.9196 50.434 36.4052L60.8511 35.2477C61.8799 34.9905 63.8604 33.0872 63.5518 27.5314C63.2431 21.9756 61.3655 24.4449 60.4653 26.374C60.208 27.9172 59.7708 31.3124 60.0794 32.547C60.3881 33.7816 62.2657 38.2057 63.166 40.2633L65.8667 44.1215C66.7669 44.6359 68.0273 46.1277 65.8667 47.9797C63.7061 49.8316 63.6804 50.5518 63.9376 50.6804C63.9376 51.0662 64.6321 51.8378 67.41 51.8378C70.1878 51.8378 72.94 51.3234 73.9688 51.0662C75.3835 51.5806 77.9042 51.3748 76.6695 46.4364C75.4349 41.498 74.3546 38.2057 73.9688 37.1768C73.7116 35.1191 73.4287 30.3093 74.3546 27.5314C75.2806 24.7535 73.1972 20.2009 72.0398 18.2718C70.2393 16.5999 66.4068 13.0247 65.4809 12.0987C64.5549 11.1728 60.9797 10.4269 59.3078 10.1697L50.434 10.5555C49.4052 10.9413 46.4215 11.4043 42.7177 10.1697C39.0139 8.93505 35.773 7.85477 34.6156 7.46895C33.9725 6.95453 32.3007 6.00285 30.7574 6.3115C29.2141 6.62015 25.2274 5.41127 23.4269 4.76825C22.5267 4.38243 20.649 3.68796 20.3404 3.99661C20.0317 4.30527 19.9545 5.41127 19.9545 5.92569L22.2694 3.61079C22.5267 2.58195 22.1151 0.832911 18.4113 2.06752C17.794 2.37617 17.6396 1.9389 17.6396 1.68169C16.6108 1.16727 14.0901 0.447081 12.2382 1.68169C10.3863 2.91631 7.60842 2.96774 6.45097 2.83913L2.59281 2.45331C1.94978 2.58192 0.740889 3.07062 1.04954 3.99658C1.35819 4.92254 2.20699 6.44008 2.59281 7.08311L2.97882 8.24056L3.36463 7.08311L6.45116 8.62637C7.09425 9.2694 8.45756 10.6326 8.76606 10.9413C9.07456 11.2499 9.15169 11.8415 9.15169 12.0987Z" stroke="white" stroke-width="0.771633" stroke-linecap="round" stroke-linejoin="round"/>
</svg>
