<svg width="60" height="62" viewBox="0 0 60 62" fill="none" xmlns="http://www.w3.org/2000/svg">
<path d="M48.7983 30.6601C50.1754 34.3133 49.4246 38.4925 47.8556 42.0631C46.5303 45.0802 44.6149 47.9323 44.2601 51.2228C44.0808 52.8845 45.6485 54.2618 46.5744 52.4633C47.3731 50.9124 45.9412 48.2324 45.2252 46.9292C44.4181 45.4609 43.6113 43.9925 42.8043 42.5242C42.1225 41.2834 41.5443 40.093 40.3225 39.3853C39.2341 38.7548 38.1512 38.2378 37.1077 37.4823C34.8505 35.8494 32.571 33.9129 31.4969 31.2173C31.0262 30.0367 30.444 28.9848 29.9583 27.7485C29.368 26.2454 28.7737 24.8227 28.4626 23.2194C28.41 22.9485 28.3612 22.6701 28.2254 22.4314C27.7781 21.6468 26.2291 21.0649 25.4548 20.7108C23.7108 19.9129 21.9671 19.1152 20.223 18.3178C19.3043 17.8974 18.2561 17.3983 17.6912 16.4969C16.7999 15.0739 18.1927 15.2512 19.184 15.5599C21.3541 16.2357 23.3873 17.7736 25.0522 19.3098C26.0474 20.228 27.3914 20.6003 28.6137 19.8446C29.1685 19.5014 29.5278 18.9116 29.853 18.3361C30.2561 17.6227 30.57 16.537 31.0868 15.9285C31.5834 15.3441 32.3426 15.1252 32.8005 14.4417C33.9062 12.7909 33.3151 10.5882 33.795 8.74655C34.1964 7.2062 34.857 4.77967 33.1371 3.75738C32.0889 3.13429 30.7488 3.63656 29.7351 4.3171C27.4311 5.8646 24.777 9.2646 25.9253 12.1954C26.2365 12.9891 26.6507 13.7525 26.7972 14.5953C26.9375 15.4026 26.8231 16.2397 26.9641 17.047C27.1052 17.8542 27.6267 18.6968 28.4201 18.7814C29.0763 18.8516 29.6572 18.3928 30.2145 18.0303C31.8007 16.9976 32.914 18.7917 34.5838 18.9909C36.403 19.2079 39.4087 18.6063 40.775 17.2568C41.5273 16.5139 42.1859 15.3688 41.4652 14.5862C41.0943 14.1837 39.8291 13.876 39.281 13.3609C38.5161 12.6419 37.8925 11.7617 37.4667 10.7897C36.7921 9.24981 36.7719 7.46683 36.1424 5.89986C35.2007 3.55642 33.5669 2.38002 31.3504 1.5609C28.7173 0.587178 25.7317 0.735122 23.929 3.17744C22.8641 4.62014 22.4084 6.46352 21.2594 7.81869C19.9069 9.41353 18.4078 10.9393 16.9522 12.4358C14.7784 14.7662 14.0128 17.222 13.1764 20.3059C12.5849 22.4881 11.4001 24.4755 10.8512 26.7119C10.0351 30.035 9.79665 33.5109 10.1756 36.9174C10.4387 39.2822 11.646 41.4292 11.6068 43.7896C11.5725 45.8468 11.7342 47.8006 12.2617 49.8082C13.2724 53.6555 15.5031 56.9912 19.1125 58.6583C21.7025 59.8541 24.5438 60.281 27.3609 60.3858C29.8737 60.4792 32.5633 61.1785 35.1593 60.9568C36.8767 60.8104 38.3761 60.0344 39.7542 59.0121C41.2869 57.8747 43.1759 56.8615 43.4333 54.7624" stroke="white" stroke-miterlimit="2" stroke-linecap="round"/>
</svg>
