<svg width="42" height="62" viewBox="0 0 42 62" fill="none" xmlns="http://www.w3.org/2000/svg">
<path d="M39.7983 30.6601C41.1754 34.3133 40.4246 38.4925 38.8556 42.0631C37.5303 45.0802 35.6149 47.9323 35.2601 51.2228C35.0808 52.8845 36.6485 54.2618 37.5744 52.4633C38.3731 50.9124 36.9412 48.2324 36.2252 46.9292C35.4181 45.4609 34.6113 43.9925 33.8043 42.5242C33.1225 41.2834 32.5443 40.093 31.3225 39.3853C30.2341 38.7548 29.1512 38.2378 28.1077 37.4823C25.8505 35.8494 23.571 33.9129 22.4969 31.2173C22.0262 30.0367 21.444 28.9848 20.9583 27.7485C20.368 26.2454 19.7737 24.8227 19.4626 23.2194C19.41 22.9485 19.3612 22.6701 19.2254 22.4314C18.7781 21.6468 17.2291 21.0649 16.4548 20.7108C14.7108 19.9129 12.9671 19.1152 11.223 18.3178C10.3043 17.8974 9.25612 17.3983 8.69122 16.4969C7.79985 15.0739 9.19275 15.2512 10.184 15.5599C12.3541 16.2357 14.3873 17.7736 16.0522 19.3098C17.0474 20.228 18.3914 20.6003 19.6137 19.8446C20.1685 19.5014 20.5278 18.9116 20.853 18.3361C21.2561 17.6227 21.57 16.537 22.0868 15.9285C22.5834 15.3441 23.3426 15.1252 23.8005 14.4417C24.9062 12.7909 24.3151 10.5882 24.795 8.74655C25.1964 7.2062 25.857 4.77967 24.1371 3.75738C23.0889 3.13429 21.7488 3.63656 20.7351 4.3171C18.4311 5.8646 15.777 9.2646 16.9253 12.1954C17.2365 12.9891 17.6507 13.7525 17.7972 14.5953C17.9375 15.4026 17.8231 16.2397 17.9641 17.047C18.1052 17.8542 18.6267 18.6968 19.4201 18.7814C20.0763 18.8516 20.6572 18.3928 21.2145 18.0303C22.8007 16.9976 23.914 18.7917 25.5838 18.9909C27.403 19.2079 30.4087 18.6063 31.775 17.2568C32.5273 16.5139 33.1859 15.3688 32.4652 14.5862C32.0943 14.1837 30.8291 13.876 30.281 13.3609C29.5161 12.6419 28.8925 11.7617 28.4667 10.7897C27.7921 9.24981 27.7719 7.46683 27.1424 5.89986C26.2007 3.55642 24.5669 2.38002 22.3504 1.5609C19.7173 0.587178 16.7317 0.735122 14.929 3.17744C13.8641 4.62014 13.4084 6.46352 12.2594 7.81869C10.9069 9.41353 9.40776 10.9393 7.95223 12.4358C5.77843 14.7662 5.01282 17.222 4.17644 20.3059C3.58491 22.4881 2.40012 24.4755 1.85125 26.7119C1.03509 30.035 0.796651 33.5109 1.17564 36.9174C1.43873 39.2822 2.64596 41.4292 2.60675 43.7896C2.57248 45.8468 2.73423 47.8006 3.26165 49.8082C4.27236 53.6555 6.50312 56.9912 10.1125 58.6583C12.7025 59.8541 15.5438 60.281 18.3609 60.3858C20.8737 60.4792 23.5633 61.1785 26.1593 60.9568C27.8767 60.8104 29.3761 60.0344 30.7542 59.0121C32.2869 57.8747 34.1759 56.8615 34.4333 54.7624" stroke="white" stroke-miterlimit="2"/>
</svg>
